<svg id="图层_1" data-name="图层 1" xmlns="http://www.w3.org/2000/svg" viewBox="0 0 69 70"><defs><style>.cls-1{fill:#29abe2;}</style></defs><rect class="cls-1" x="0.5" y="0.5" width="68" height="69" rx="1.29"/><path d="M85.21,29.5a.79.79,0,0,1,.79.79V96.71a.79.79,0,0,1-.79.79H19.79a.79.79,0,0,1-.79-.79V30.29a.79.79,0,0,1,.79-.79H85.21m0-1H19.79A1.79,1.79,0,0,0,18,30.29V96.71a1.79,1.79,0,0,0,1.79,1.79H85.21A1.79,1.79,0,0,0,87,96.71V30.29a1.79,1.79,0,0,0-1.79-1.79Z" transform="translate(-18 -28.5)"/><rect x="3" y="3.4" width="10" height="30" rx="1.79"/><rect x="16" y="3.4" width="10" height="30" rx="1.79"/><rect x="29" y="3.5" width="10" height="30" rx="1.79"/><rect x="29" y="35.5" width="10" height="30" rx="1.79"/><rect x="42" y="3.5" width="10" height="30" rx="1.79"/><rect x="42" y="35.5" width="10" height="30" rx="1.79"/><rect x="55" y="3.5" width="10" height="30" rx="1.79"/><rect x="55" y="35.5" width="10" height="30" rx="1.79"/><rect x="16" y="35.5" width="10" height="30" rx="1.79"/><rect x="3" y="35.5" width="10" height="30" rx="1.79"/></svg>