<?xml version="1.0" standalone="no"?><!DOCTYPE svg PUBLIC "-//W3C//DTD SVG 1.1//EN" "http://www.w3.org/Graphics/SVG/1.1/DTD/svg11.dtd"><svg t="1658712106953" class="icon" viewBox="0 0 1024 1024" version="1.1" xmlns="http://www.w3.org/2000/svg" p-id="4067" xmlns:xlink="http://www.w3.org/1999/xlink" width="200" height="200"><defs><style type="text/css">@font-face { font-family: feedback-iconfont; src: url("//at.alicdn.com/t/font_1031158_u69w8yhxdu.woff2?t=1630033759944") format("woff2"), url("//at.alicdn.com/t/font_1031158_u69w8yhxdu.woff?t=1630033759944") format("woff"), url("//at.alicdn.com/t/font_1031158_u69w8yhxdu.ttf?t=1630033759944") format("truetype"); }
</style></defs><path d="M863.744 205.312h53.76v642.048h-53.76zM756.736 205.312h53.76v642.048h-53.76zM114.176 205.312h53.76v642.048H114.176zM649.728 205.312h53.76v642.048h-53.76zM221.184 205.312h53.76v642.048H221.184zM328.192 205.312h53.76v642.048H328.192z" p-id="4068" fill="#1296db"></path><path d="M114.176 71.168v53.76h-26.624c-44.544 0-80.384 35.84-80.384 80.384v642.048c0 44.544 35.84 80.384 80.384 80.384h856.064c44.544 0 80.384-35.84 80.384-80.384V205.312c0-44.544-35.84-80.384-80.384-80.384h-26.624V71.168h-160.768v53.76h-481.28V71.168H114.176z m829.44 107.008c14.848 0 26.624 11.776 26.624 26.624v642.048c0 14.848-11.776 26.624-26.624 26.624H87.552c-14.848 0-26.624-11.776-26.624-26.624V205.312c0-14.848 11.776-26.624 26.624-26.624h856.064z" p-id="4069" fill="#1296db"></path><path d="M435.2 205.312h53.76v642.048H435.2zM542.72 205.312h53.76v642.048H542.72z" p-id="4070" fill="#1296db"></path></svg>