<?xml version="1.0" encoding="utf-8"?>
<!-- Generator: Adobe Illustrator 26.0.0, SVG Export Plug-In . SVG Version: 6.00 Build 0)  -->
<svg version="1.1" id="图层_1" xmlns="http://www.w3.org/2000/svg" xmlns:xlink="http://www.w3.org/1999/xlink" x="0px" y="0px"
	 viewBox="0 0 69 70" style="enable-background:new 0 0 69 70;" xml:space="preserve">
<style type="text/css">
	.st0{fill:#464D9E;}
	.st1{fill:#222589;}
	.st2{fill:#372D8D;}
</style>
<path class="st0" d="M1.8,0.5h65.4c0.7,0,1.3,0.6,1.3,1.3v66.4c0,0.7-0.6,1.3-1.3,1.3H1.8c-0.7,0-1.3-0.6-1.3-1.3V1.8
	C0.5,1.1,1.1,0.5,1.8,0.5z"/>
<path class="st1" d="M67.2,1C67.6,1,68,1.4,68,1.8v0v66.4c0,0.4-0.4,0.8-0.8,0.8l0,0H1.8C1.4,69,1,68.6,1,68.2l0,0V1.8
	C1,1.4,1.4,1,1.8,1h0H67.2 M67.2,0H1.8C0.8,0,0,0.8,0,1.8v0v66.4c0,1,0.8,1.8,1.8,1.8h0h65.4c1,0,1.8-0.8,1.8-1.8l0,0V1.8
	C69,0.8,68.2,0,67.2,0L67.2,0z"/>
<path class="st2" d="M4.8,3.4h6.4c1,0,1.8,0.8,1.8,1.8v26.4c0,1-0.8,1.8-1.8,1.8H4.8c-1,0-1.8-0.8-1.8-1.8V5.2
	C3,4.2,3.8,3.4,4.8,3.4z"/>
<path class="st2" d="M17.8,3.4h6.4c1,0,1.8,0.8,1.8,1.8v26.4c0,1-0.8,1.8-1.8,1.8h-6.4c-1,0-1.8-0.8-1.8-1.8V5.2
	C16,4.2,16.8,3.4,17.8,3.4z"/>
<path class="st2" d="M30.8,3.5h6.4c1,0,1.8,0.8,1.8,1.8v26.4c0,1-0.8,1.8-1.8,1.8h-6.4c-1,0-1.8-0.8-1.8-1.8V5.3
	C29,4.3,29.8,3.5,30.8,3.5z"/>
<path class="st2" d="M30.8,35.5h6.4c1,0,1.8,0.8,1.8,1.8v26.4c0,1-0.8,1.8-1.8,1.8h-6.4c-1,0-1.8-0.8-1.8-1.8V37.3
	C29,36.3,29.8,35.5,30.8,35.5z"/>
<path class="st2" d="M43.8,3.5h6.4c1,0,1.8,0.8,1.8,1.8v26.4c0,1-0.8,1.8-1.8,1.8h-6.4c-1,0-1.8-0.8-1.8-1.8V5.3
	C42,4.3,42.8,3.5,43.8,3.5z"/>
<path class="st2" d="M43.8,35.5h6.4c1,0,1.8,0.8,1.8,1.8v26.4c0,1-0.8,1.8-1.8,1.8h-6.4c-1,0-1.8-0.8-1.8-1.8V37.3
	C42,36.3,42.8,35.5,43.8,35.5z"/>
<path class="st2" d="M56.8,3.5h6.4c1,0,1.8,0.8,1.8,1.8v26.4c0,1-0.8,1.8-1.8,1.8h-6.4c-1,0-1.8-0.8-1.8-1.8V5.3
	C55,4.3,55.8,3.5,56.8,3.5z"/>
<path class="st2" d="M56.8,35.5h6.4c1,0,1.8,0.8,1.8,1.8v26.4c0,1-0.8,1.8-1.8,1.8h-6.4c-1,0-1.8-0.8-1.8-1.8V37.3
	C55,36.3,55.8,35.5,56.8,35.5z"/>
<path class="st2" d="M17.8,35.5h6.4c1,0,1.8,0.8,1.8,1.8v26.4c0,1-0.8,1.8-1.8,1.8h-6.4c-1,0-1.8-0.8-1.8-1.8V37.3
	C16,36.3,16.8,35.5,17.8,35.5z"/>
<path class="st2" d="M4.8,35.5h6.4c1,0,1.8,0.8,1.8,1.8v26.4c0,1-0.8,1.8-1.8,1.8H4.8c-1,0-1.8-0.8-1.8-1.8V37.3
	C3,36.3,3.8,35.5,4.8,35.5z"/>
</svg>
