<svg id="图层_1" data-name="图层 1" xmlns="http://www.w3.org/2000/svg" viewBox="0 0 200 180.95"><defs><style>.cls-1{fill:#8f65ff;}.cls-2{fill:#fff;}.cls-3{fill:#c7b2ff;}.cls-4{fill:#29abe2;}</style></defs><path class="cls-1" d="M177.46,246.24H15.56a19.1,19.1,0,0,1-19-19.05V160.53a19.1,19.1,0,0,1,19.05-19.05h161.9a19.1,19.1,0,0,1,19,19.05v66.66a19.1,19.1,0,0,1-19,19.05Z" transform="translate(3.49 -89.1)"/><path class="cls-2" d="M37,201H22.7a7.14,7.14,0,1,1,0-14.28H37A7.14,7.14,0,1,1,37,201Zm38.09,0H60.8a7.14,7.14,0,1,1,0-14.28H75.08a7.14,7.14,0,1,1,0,14.28Z" transform="translate(3.49 -89.1)"/><path class="cls-3" d="M34.61,270.05a9.56,9.56,0,0,1-9.53-9.52V246.24H44.13v14.29A9.56,9.56,0,0,1,34.61,270.05Zm123.81,0a9.56,9.56,0,0,1-9.53-9.52V246.24h19.05v14.29A9.56,9.56,0,0,1,158.42,270.05Zm9.52-128.57H148.89V98.62a9.53,9.53,0,0,1,19.05,0Z" transform="translate(3.49 -89.1)"/><rect class="cls-4" x="91.99" y="71.9" width="68" height="69" rx="1.29"/><path d="M155.21,161.5a.79.79,0,0,1,.79.79v66.42a.79.79,0,0,1-.79.79H89.79a.79.79,0,0,1-.79-.79V162.29a.79.79,0,0,1,.79-.79h65.42m0-1H89.79A1.79,1.79,0,0,0,88,162.29v66.42a1.79,1.79,0,0,0,1.79,1.79h65.42a1.79,1.79,0,0,0,1.79-1.79V162.29a1.79,1.79,0,0,0-1.79-1.79Z" transform="translate(3.49 -89.1)"/><rect x="94.49" y="74.8" width="10" height="30" rx="1.79"/><rect x="107.49" y="74.8" width="10" height="30" rx="1.79"/><rect x="120.49" y="74.9" width="10" height="30" rx="1.79"/><rect x="120.49" y="106.9" width="10" height="30" rx="1.79"/><rect x="133.49" y="74.9" width="10" height="30" rx="1.79"/><rect x="133.49" y="106.9" width="10" height="30" rx="1.79"/><rect x="146.49" y="74.9" width="10" height="30" rx="1.79"/><rect x="146.49" y="106.9" width="10" height="30" rx="1.79"/><rect x="107.49" y="106.9" width="10" height="30" rx="1.79"/><rect x="94.49" y="106.9" width="10" height="30" rx="1.79"/></svg>