<svg id="图层_1" data-name="图层 1" xmlns="http://www.w3.org/2000/svg" viewBox="0 0 161.72 199.99"><defs><style>.cls-1{fill:#f0c48a;}.cls-2{fill:#d3e6f8;}.cls-3{fill:#a4cff2;}.cls-4{fill:#7babf1;}.cls-5{fill:#4c4372;}.cls-6{fill:#e8677d;}.cls-7{fill:#fd919e;}.cls-8{fill:#29abe2;}</style></defs><path class="cls-1" d="M-16.2,124.67A80.86,80.86,0,1,0,64.66,43.81,80.86,80.86,0,0,0-16.2,124.67Z" transform="translate(16.2 -24.69)"/><path class="cls-2" d="M61.38,63.85,29.15,52.41l-27.46,77,32.19,11.45Z" transform="translate(16.2 -24.69)"/><path class="cls-2" d="M32.55,114.67,1.69,129.32l31,65.24,40.23,5Z" transform="translate(16.2 -24.69)"/><path class="cls-3" d="M37.82,151.78l19.81,40,12.65-.9L45.87,145.49Zm-4.25-48.2,12.3-31,12.46-.16-14.26,40Zm54.14,87.7V170.46h16.4v20.82" transform="translate(16.2 -24.69)"/><path class="cls-4" d="M97.32,172.14h6.83v19.1H97.32ZM96,83.93,130,76.51a5.39,5.39,0,0,0-1.44-10.66L97.16,67.68A12.17,12.17,0,0,1,89,45.89a12.08,12.08,0,0,1,8.17-2.5l31.33,1.91A5.38,5.38,0,0,0,130,34.67L96.1,27.21a10.86,10.86,0,0,0-9.92,2.89L76.5,39.79l-23.56,0,0,31.68,23.56,0v-.12L86.14,81A10.71,10.71,0,0,0,96,83.93Z" transform="translate(16.2 -24.69)"/><path class="cls-5" d="M33.88,143.11a2.59,2.59,0,0,1-.78-.12L.87,131.55a2.17,2.17,0,0,1-1.29-1.17,2.33,2.33,0,0,1-.08-1.76L27,51.67a2.34,2.34,0,0,1,2.93-1.41L62.12,61.71a2.08,2.08,0,0,1,1.29,1.17,2.33,2.33,0,0,1,.08,1.76L36,141.59a2.24,2.24,0,0,1-2.15,1.52ZM4.62,128l27.89,9.92L58.45,65.26,30.56,55.34Z" transform="translate(16.2 -24.69)"/><path class="cls-5" d="M72.9,201.86h-.27l-40.24-5a2.27,2.27,0,0,1-1.79-1.29l-31-65.23a2.16,2.16,0,0,1-.08-1.76,2.15,2.15,0,0,1,1.18-1.29L31.57,112.6a2.3,2.3,0,0,1,3,1.1L75,198.62a2.31,2.31,0,0,1-.19,2.3,2.23,2.23,0,0,1-1.88.94Zm-38.71-9.41L69,196.78,31.46,117.72,4.7,130.42Z" transform="translate(16.2 -24.69)"/><path class="cls-6" d="M3,147a27,27,0,1,0,38.14-38.1h0A27,27,0,1,0,3,147Z" transform="translate(16.2 -24.69)"/><path class="cls-5" d="M22.08,157.21a29.3,29.3,0,0,1-9.84-1.72,29.25,29.25,0,0,1-2.74-54,29.1,29.1,0,0,1,22.39-1.13,29.27,29.27,0,0,1-9.81,56.83Zm0-54a25.09,25.09,0,0,0-10.58,2.38,24.68,24.68,0,1,0,21.21,44.57,24.68,24.68,0,0,0-2.35-45.54A26.23,26.23,0,0,0,22,103.23Z" transform="translate(16.2 -24.69)"/><path class="cls-7" d="M8.27,130.58a14,14,0,1,0,11.15-16.4A14,14,0,0,0,8.27,130.58Z" transform="translate(16.2 -24.69)"/><path class="cls-5" d="M22.08,144.24a16.29,16.29,0,0,1-7-31A16.31,16.31,0,0,1,36.77,121,16.29,16.29,0,0,1,29,142.68,16.11,16.11,0,0,1,22.08,144.24Zm0-28a11.4,11.4,0,0,0-5,1.13,11.72,11.72,0,1,0,15.63,5.55A11.87,11.87,0,0,0,22,116.2ZM93.72,86.47a13.12,13.12,0,0,1-9.22-3.83l-8.9-8.9-22.74,0a2.31,2.31,0,0,1-2.3-2.31l0-31.68a2.21,2.21,0,0,1,.66-1.6,2.28,2.28,0,0,1,1.6-.66l22.62,0,9-9a13.05,13.05,0,0,1,12-3.51l33.95,7.5a7.67,7.67,0,0,1-2.15,15.15L97,45.73a9.88,9.88,0,0,0-6.68,17.66A10,10,0,0,0,97,65.46l31.37-1.84a7.62,7.62,0,0,1,5.7,2.07,7.66,7.66,0,0,1-3.63,13.09L96.46,86.2a16.52,16.52,0,0,1-2.74.27ZM76.46,69.05a2.45,2.45,0,0,1,1.64.66l9.68,9.69a8.44,8.44,0,0,0,7.82,2.31l33.94-7.43a3.08,3.08,0,0,0,2.42-3A3.13,3.13,0,0,0,131,69a3,3,0,0,0-2.31-.82L97.32,70A14.51,14.51,0,0,1,82,55.57a14.39,14.39,0,0,1,5.63-11.44,14.24,14.24,0,0,1,9.73-3l31.32,1.91a3.1,3.1,0,0,0,.86-6.13l-33.94-7.5a8.45,8.45,0,0,0-7.81,2.27l-9.69,9.68a2.29,2.29,0,0,1-1.6.67L55.17,42l0,27.07,20.55,0A5,5,0,0,1,76.46,69.05Z" transform="translate(16.2 -24.69)"/><path class="cls-6" d="M39,75.44A20.47,20.47,0,0,0,52.72,36.88h0A20.47,20.47,0,0,0,39,75.44Z" transform="translate(16.2 -24.69)"/><path class="cls-7" d="M44.83,64.15a8,8,0,1,0,2-16h0a8,8,0,0,0-2,16Z" transform="translate(16.2 -24.69)"/><path class="cls-5" d="M45.87,78.93A22.82,22.82,0,0,1,25.28,66a22.8,22.8,0,1,1,20.59,13Zm0-40.9a17.76,17.76,0,0,0-7.77,1.76A18.14,18.14,0,1,0,45.83,38Z" transform="translate(16.2 -24.69)"/><path class="cls-5" d="M45.87,66.51a10.73,10.73,0,0,1-3.48-.59,10.35,10.35,0,1,1,7.89-.39A10.88,10.88,0,0,1,45.87,66.51Zm0-16.05a6.1,6.1,0,0,0-2.46.54,5.73,5.73,0,0,0-2.93,3.24,5.73,5.73,0,1,0,5.39-3.78Z" transform="translate(16.2 -24.69)"/><path class="cls-2" d="M129.46,222.37H-3.47V207.64a16.33,16.33,0,0,1,16.33-16.33H113.1a16.33,16.33,0,0,1,16.33,16.33v14.73Z" transform="translate(16.2 -24.69)"/><path class="cls-5" d="M24.31,179.28a2.29,2.29,0,0,1-2.11-1.4,2.33,2.33,0,0,1,1.25-3l31.64-13.09A2.3,2.3,0,1,1,56.85,166L25.21,179.13A3.6,3.6,0,0,1,24.31,179.28Zm79.8,14.26a2.3,2.3,0,0,1-2.3-2.3V172.72H90v18.52a2.31,2.31,0,0,1-4.61,0V170.42a2.32,2.32,0,0,1,2.31-2.31h16.44a2.32,2.32,0,0,1,2.31,2.31v20.82A2.28,2.28,0,0,1,104.11,193.54Z" transform="translate(16.2 -24.69)"/><path class="cls-3" d="M129.46,222.1H118.37V193.7a11.08,11.08,0,0,1,11.09,11.09Z" transform="translate(16.2 -24.69)"/><path class="cls-5" d="M129.46,224.67H-3.47a2.3,2.3,0,0,1-2.3-2.3V207.64A18.65,18.65,0,0,1,12.86,189H113.1a18.65,18.65,0,0,1,18.63,18.63v14.73a2.23,2.23,0,0,1-2.27,2.3ZM-1.16,220.1H127.2V207.68a14.08,14.08,0,0,0-14.06-14.06H12.86A14.08,14.08,0,0,0-1.2,207.68V220.1Z" transform="translate(16.2 -24.69)"/><rect class="cls-8" x="85.7" y="98.31" width="68" height="69" rx="1.29"/><path d="M136.21,123.5a.79.79,0,0,1,.79.79v66.42a.79.79,0,0,1-.79.79H70.79a.79.79,0,0,1-.79-.79V124.29a.79.79,0,0,1,.79-.79h65.42m0-1H70.79A1.79,1.79,0,0,0,69,124.29v66.42a1.79,1.79,0,0,0,1.79,1.79h65.42a1.79,1.79,0,0,0,1.79-1.79V124.29a1.79,1.79,0,0,0-1.79-1.79Z" transform="translate(16.2 -24.69)"/><rect x="88.2" y="101.21" width="10" height="30" rx="1.79"/><rect x="101.2" y="101.21" width="10" height="30" rx="1.79"/><rect x="114.2" y="101.31" width="10" height="30" rx="1.79"/><rect x="114.2" y="133.31" width="10" height="30" rx="1.79"/><rect x="127.2" y="101.31" width="10" height="30" rx="1.79"/><rect x="127.2" y="133.31" width="10" height="30" rx="1.79"/><rect x="140.2" y="101.31" width="10" height="30" rx="1.79"/><rect x="140.2" y="133.31" width="10" height="30" rx="1.79"/><rect x="101.2" y="133.31" width="10" height="30" rx="1.79"/><rect x="88.2" y="133.31" width="10" height="30" rx="1.79"/></svg>