<?xml version="1.0" standalone="no"?><!DOCTYPE svg PUBLIC "-//W3C//DTD SVG 1.1//EN" "http://www.w3.org/Graphics/SVG/1.1/DTD/svg11.dtd"><svg t="1658629144103" class="icon" viewBox="0 0 1024 1024" version="1.1" xmlns="http://www.w3.org/2000/svg" p-id="11400" xmlns:xlink="http://www.w3.org/1999/xlink" width="200" height="200"><defs><style type="text/css">@font-face { font-family: feedback-iconfont; src: url("//at.alicdn.com/t/font_1031158_u69w8yhxdu.woff2?t=1630033759944") format("woff2"), url("//at.alicdn.com/t/font_1031158_u69w8yhxdu.woff?t=1630033759944") format("woff"), url("//at.alicdn.com/t/font_1031158_u69w8yhxdu.ttf?t=1630033759944") format("truetype"); }
</style></defs><path d="M304.44 496.21c-8.95 0-16.21-7.26-16.21-16.21 0-33.33 6.84-65.55 20.33-95.75 3.64-8.18 13.24-11.84 21.41-8.19 8.18 3.65 11.84 13.24 8.19 21.41-11.62 26.02-17.51 53.79-17.51 82.54-0.01 8.95-7.26 16.2-16.21 16.2z" fill="#FFFFFF" p-id="11401"></path><path d="M135.9 380.37h756.5v505.07c0 6.14-4.98 11.13-11.13 11.13H190.21c-63.61 0-53.23-7.42-53.23-62.3l-1.08-453.9z" fill="#FFC963" p-id="11402"></path><path d="M881.27 796.95H190.21c-41.26 0-51.34-2.35-53.36-19.52l0.13 55.55c0 54.88-10.38 61.87 53.23 61.87h691.06c6.14 0 12.15-3.26 12.15-9.4v-97.9c0 6.14-6.01 9.4-12.15 9.4zM136.98 735.51l-0.85-356.86h-0.23l0.88 370.11c0.11-4.24 0.2-8.27 0.2-13.25z" fill="#FFC963" opacity=".39" p-id="11403"></path><path d="M892.39 380.37h-756.5l78.96-275.9c0-2.72 21.7 0 27.84 0h516.2c12.33 12.33 54.49 0 54.49 0l79.01 275.9z" fill="#FFC963" p-id="11404"></path><path d="M892.39 380.37h-756.5l78.96-275.9c0-2.72 21.7 0 27.84 0h516.2c12.33 12.33 54.49 0 54.49 0l79.01 275.9z" fill="#FFC963" opacity=".39" p-id="11405"></path><path d="M119.18 718.57c-9.83 0-17.8-7.97-17.8-17.8v-124.6c0-9.83 7.97-17.8 17.8-17.8s17.8 7.97 17.8 17.8v124.6c0 9.83-7.97 17.8-17.8 17.8z" fill="#5E125C" p-id="11406"></path><path d="M848.98 932.17H180.4c-43.57 0-79.02-35.45-79.02-79.02v-81.18c0-9.83 7.97-17.8 17.8-17.8s17.8 7.97 17.8 17.8v81.18c0 23.94 19.48 43.42 43.42 43.42h668.58c23.94 0 43.42-19.48 43.42-43.42V389.27H136.98v124.6c0 9.83-7.97 17.8-17.8 17.8s-17.8-7.97-17.8-17.8v-160.2H928v499.48c0 43.57-35.45 79.02-79.02 79.02z" fill="#5E125C" p-id="11407"></path><path d="M672.37 378.65H135.9l1.08 454.76c0 41.94-5.95 55.69 19.57 60.07 183.23-183.43 344.01-345.73 515.82-514.83z" fill="#FFFFFF" opacity=".1" p-id="11408"></path><path d="M892.23 389.27H136.07c-9.9 0-19.21-4.84-24.89-12.95a30.436 30.436 0 0 1-3.68-27.82l78.03-214.93c10.03-28.02 36.85-46.9 66.69-46.9h523.95c29.72 0 56.5 18.77 66.63 46.72l78.01 215.13c3.37 9.31 1.99 19.7-3.69 27.81a30.447 30.447 0 0 1-24.89 12.94z m-4.89-28.62h0.09-0.09z m-743.85-6.98h741.32l-75.48-208.15c-5.04-13.91-18.37-23.25-33.16-23.25H252.22c-14.85 0-28.2 9.4-33.21 23.37l-75.52 208.03z" fill="#5E125C" p-id="11409"></path><path d="M621.58 576.17H433.41a3.82 3.82 0 0 1-3.82-3.82V371.47h195.8v200.88c0.01 2.12-1.7 3.82-3.81 3.82zM625.4 371.47H429.6l26.7-267h142.4z" fill="#F8F9FB" p-id="11410"></path><path d="M591.43 593.97H463.57c-28.55 0-51.77-23.22-51.77-51.77V353.67h231.4V542.2c0 28.55-23.23 51.77-51.77 51.77zM447.4 389.27V542.2c0 8.92 7.25 16.17 16.17 16.17h127.86c8.92 0 16.17-7.25 16.17-16.17V389.27H447.4z" fill="#5E125C" p-id="11411"></path><path d="M645.06 389.27H409.93l30.26-302.6h174.62l30.25 302.6z m-195.8-35.6h156.46l-23.14-231.4H472.41l-23.15 231.4z" fill="#5E125C" p-id="11412"></path></svg>